<svg width="16" height="16" viewBox="0 0 16 16" fill="none" xmlns="http://www.w3.org/2000/svg">
<g clip-path="url(#clip0_11_1276)">
<path d="M15.3501 13.125L14.1001 2.35C13.9751 1.25 13.0501 0.424999 11.9251 0.424999H4.05009C2.95009 0.424999 2.02509 1.25 1.87509 2.35L0.625089 13.125C0.550089 13.75 0.750089 14.35 1.17509 14.825C1.60009 15.3 2.17509 15.55 2.80009 15.55H13.1751C13.8001 15.55 14.4001 15.275 14.8001 14.825C15.2001 14.375 15.4251 13.75 15.3501 13.125ZM13.9751 14.075C13.7751 14.3 13.5001 14.425 13.2001 14.425H2.80009C2.50009 14.425 2.22509 14.3 2.02509 14.075C1.82509 13.85 1.72509 13.55 1.77509 13.25L3.00009 2.5C3.05009 1.975 3.50009 1.575 4.05009 1.575H11.9501C12.4751 1.575 12.9251 1.975 13.0001 2.5L14.2501 13.275C14.2751 13.575 14.1751 13.85 13.9751 14.075Z" fill="#131604"/>
<path d="M10.4252 3.85C10.1252 3.925 9.9252 4.225 10.0002 4.525C10.0252 4.675 10.0502 4.825 10.0502 4.95C10.0502 6.075 9.1252 7 8.0002 7C6.8752 7 5.9502 6.075 5.9502 4.95C5.9502 4.8 5.9752 4.675 6.0002 4.525C6.0752 4.225 5.8752 3.925 5.5752 3.85C5.2752 3.775 4.9752 3.975 4.9002 4.275C4.8502 4.5 4.8252 4.725 4.8252 4.95C4.8252 6.7 6.2502 8.125 8.0002 8.125C9.7502 8.125 11.1752 6.7 11.1752 4.95C11.1752 4.725 11.1502 4.5 11.1002 4.275C11.0252 3.975 10.7252 3.8 10.4252 3.85Z" fill="#131604"/>
</g>
<defs>
<clipPath id="clip0_11_1276">
<rect width="16" height="16" fill="white"/>
</clipPath>
</defs>
</svg>
