<svg aria-hidden="true" xmlns="http://www.w3.org/2000/svg" viewBox="0 0 20 20" width="20" height="20">
  <defs>
    <clipPath id="flag-us-clip">
      <rect width="20" height="20" rx="10"/>
    </clipPath>
  </defs>
  <g clip-path="url(#flag-us-clip)">
    <rect width="26.667" height="20" x="-3.333" fill="#BD3D44"/>
    <g fill="#FFFFFF">
      <rect x="-3.333" y="1.538" width="26.667" height="1.538"/>
      <rect x="-3.333" y="4.615" width="26.667" height="1.538"/>
      <rect x="-3.333" y="7.692" width="26.667" height="1.538"/>
      <rect x="-3.333" y="10.769" width="26.667" height="1.538"/>
      <rect x="-3.333" y="13.846" width="26.667" height="1.538"/>
      <rect x="-3.333" y="16.923" width="26.667" height="1.538"/>
    </g>
    <rect x="-3.333" width="10.667" height="10.769" fill="#192F5D"/>
    <g fill="#FFFFFF" font-family="Arial" font-size="2.2" text-anchor="middle">
      <text x="-1.6" y="2">★</text><text x="0.4" y="2">★</text><text x="2.4" y="2">★</text><text x="4.4" y="2">★</text><text x="6.4" y="2">★</text>
      <text x="-0.6" y="3.6">★</text><text x="1.4" y="3.6">★</text><text x="3.4" y="3.6">★</text><text x="5.4" y="3.6">★</text>
      <text x="-1.6" y="5.2">★</text><text x="0.4" y="5.2">★</text><text x="2.4" y="5.2">★</text><text x="4.4" y="5.2">★</text><text x="6.4" y="5.2">★</text>
      <text x="-0.6" y="6.8">★</text><text x="1.4" y="6.8">★</text><text x="3.4" y="6.8">★</text><text x="5.4" y="6.8">★</text>
      <text x="-1.6" y="8.4">★</text><text x="0.4" y="8.4">★</text><text x="2.4" y="8.4">★</text><text x="4.4" y="8.4">★</text><text x="6.4" y="8.4">★</text>
      <text x="-0.6" y="10">★</text><text x="1.4" y="10">★</text><text x="3.4" y="10">★</text><text x="5.4" y="10">★</text>
    </g>
  </g>
</svg>
