<svg aria-hidden="true" width="32" height="32" viewBox="0 0 32 32" fill="none" xmlns="http://www.w3.org/2000/svg">
  <path d="M16 17C18.2093 17 20 15.2092 20 13C20 10.7909 18.2093 9 16 9C13.7908 9 12 10.7909 12 13C12 15.2092 13.7908 17 16 17Z" stroke="currentColor" stroke-width="2" stroke-linecap="round" stroke-linejoin="round"/>
  <path d="M26 13C26 22 16 29 16 29C16 29 6 22 6 13C6 10.3478 7.05357 7.80429 8.92893 5.92893C10.8043 4.05357 13.3479 3 16 3C18.6522 3 21.1957 4.05357 23.071 5.92893C24.9464 7.80429 26 10.3478 26 13Z" stroke="currentColor" stroke-width="2" stroke-linecap="round" stroke-linejoin="round"/>
</svg>
