<svg aria-hidden="true" width="28" height="28" viewBox="0 0 28 28" fill="none" xmlns="http://www.w3.org/2000/svg">
  <path d="M14 14.4375C14.7249 14.4375 15.3125 13.8499 15.3125 13.125C15.3125 12.4001 14.7249 11.8125 14 11.8125C13.2751 11.8125 12.6875 12.4001 12.6875 13.125C12.6875 13.8499 13.2751 14.4375 14 14.4375Z" fill="currentColor"/>
  <path d="M9.1875 14.4375C9.91238 14.4375 10.5 13.8499 10.5 13.125C10.5 12.4001 9.91238 11.8125 9.1875 11.8125C8.46262 11.8125 7.875 12.4001 7.875 13.125C7.875 13.8499 8.46262 14.4375 9.1875 14.4375Z" fill="currentColor"/>
  <path d="M18.8125 14.4375C19.5374 14.4375 20.125 13.8499 20.125 13.125C20.125 12.4001 19.5374 11.8125 18.8125 11.8125C18.0876 11.8125 17.5 12.4001 17.5 13.125C17.5 13.8499 18.0876 14.4375 18.8125 14.4375Z" fill="currentColor"/>
  <path d="M11.492 21L13.242 24.0625C13.3185 24.1966 13.4291 24.3082 13.5626 24.3858C13.6961 24.4633 13.8478 24.5042 14.0022 24.5042C14.1567 24.5042 14.3083 24.4633 14.4417 24.3858C14.5753 24.3082 14.6859 24.1966 14.7623 24.0625L16.5123 21H23.625C23.8571 21 24.0796 20.9079 24.2437 20.7437C24.4079 20.5796 24.5 20.3571 24.5 20.125V6.125C24.5 5.89294 24.4079 5.67038 24.2437 5.50628C24.0796 5.34219 23.8571 5.25 23.625 5.25H4.375C4.14294 5.25 3.92038 5.34219 3.75628 5.50628C3.59219 5.67038 3.5 5.89294 3.5 6.125V20.125C3.5 20.3571 3.59219 20.5796 3.75628 20.7437C3.92038 20.9079 4.14294 21 4.375 21H11.492Z" stroke="currentColor" stroke-width="2"/>
</svg>
