<svg aria-hidden="true" width="28" height="28" viewBox="0 0 28 28" fill="none" xmlns="http://www.w3.org/2000/svg">
  <path d="M17.9802 15.8962C18.1013 15.8155 18.2407 15.7664 18.3856 15.7532C18.5307 15.7401 18.6766 15.7632 18.8103 15.8207L23.9684 18.1317C24.1423 18.206 24.2873 18.3347 24.382 18.4983C24.4766 18.6619 24.5157 18.8518 24.4934 19.0396C24.3235 20.3094 23.6982 21.4745 22.7336 22.3178C21.7692 23.1612 20.5313 23.6256 19.25 23.6246C15.3049 23.6246 11.5214 22.0574 8.73179 19.2678C5.94219 16.4781 4.375 12.6946 4.375 8.74955C4.37402 7.46833 4.8384 6.23036 5.68177 5.26588C6.52515 4.30139 7.6901 3.67604 8.96 3.5061C9.14773 3.48382 9.33762 3.5229 9.50127 3.61754C9.66491 3.71218 9.79352 3.85728 9.86782 4.0311L12.1789 9.1936C12.2357 9.3262 12.2588 9.47078 12.2462 9.61447C12.2336 9.75817 12.1857 9.89652 12.1067 10.0172L9.76938 12.7964C9.68646 12.9215 9.63743 13.066 9.62709 13.2157C9.61673 13.3655 9.64541 13.5153 9.71032 13.6506C10.6148 15.5023 12.5289 17.3935 14.3861 18.2892C14.5222 18.3539 14.6727 18.3819 14.8229 18.3705C14.973 18.3593 15.1176 18.3089 15.2425 18.2246L17.9802 15.8962Z" stroke="currentColor" stroke-width="2"/>
</svg>
