<svg aria-hidden="true" width="28" height="28" viewBox="0 0 28 28" fill="none" xmlns="http://www.w3.org/2000/svg">
  <path d="M14 13.2016V20.2016" stroke="currentColor" stroke-width="2"/>
  <path d="M14.0012 20.1244L24.2037 23.5708C24.3717 23.6323 24.5546 23.6408 24.7276 23.5952C24.9006 23.5497 25.0555 23.4521 25.1714 23.3157C25.2873 23.1794 25.3586 23.0107 25.3755 22.8326C25.3926 22.6545 25.3547 22.4755 25.2669 22.3195L14.7571 3.94455C14.6813 3.80779 14.5705 3.69378 14.4358 3.6144C14.3011 3.53502 14.1477 3.49316 13.9914 3.49316C13.8351 3.49316 13.6817 3.53502 13.547 3.6144C13.4124 3.69378 13.3015 3.80779 13.2258 3.94455L2.74219 22.3195C2.65527 22.475 2.61783 22.6533 2.63488 22.8305C2.65193 23.0077 2.72266 23.1756 2.8376 23.3115C2.95256 23.4475 3.10628 23.5452 3.27821 23.5915C3.45014 23.6379 3.63213 23.6306 3.79984 23.5708L14.0012 20.1244Z" stroke="currentColor" stroke-width="2"/>
</svg>
