<svg xmlns="http://www.w3.org/2000/svg" viewBox="0 0 53 15" width="53" height="15" fill="none" aria-hidden="true">
  <path d="M19.892 3.16h-3.34a.464.464 0 0 0-.459.392l-1.35 8.564a.279.279 0 0 0 .276.323h1.595a.464.464 0 0 0 .458-.392l.364-2.31a.464.464 0 0 1 .459-.392h1.057c2.2 0 3.469-1.064 3.8-3.173.15-.923.007-1.648-.425-2.156-.475-.557-1.317-.856-2.435-.856zm.385 3.126c-.183 1.2-1.099 1.2-1.985 1.2h-.504l.353-2.236a.279.279 0 0 1 .275-.235h.231c.603 0 1.172 0 1.466.343.176.205.23.51.164.928zM30.097 6.247h-1.6a.279.279 0 0 0-.275.235l-.07.448-.112-.162c-.347-.503-1.119-.671-1.89-.671-1.768 0-3.279 1.34-3.573 3.22-.153.937.064 1.834.595 2.46.487.575 1.184.815 2.014.815 1.425 0 2.215-.917 2.215-.917l-.071.444a.279.279 0 0 0 .275.323h1.44a.464.464 0 0 0 .458-.392l.864-5.48a.279.279 0 0 0-.275-.323zm-2.23 3.116c-.154.913-.879 1.527-1.804 1.527-.464 0-.835-.149-1.073-.432-.236-.281-.326-.681-.25-1.127.144-.906.881-1.54 1.792-1.54.453 0 .822.151 1.066.436.245.288.342.69.269 1.136zM38.62 6.247h-1.609a.466.466 0 0 0-.385.204l-2.219 3.27-.94-3.142a.464.464 0 0 0-.444-.332h-1.582a.279.279 0 0 0-.264.369l1.772 5.2-1.666 2.353a.279.279 0 0 0 .228.44h1.607a.464.464 0 0 0 .381-.2l5.353-7.726a.279.279 0 0 0-.229-.436zM43.945 3.16h-3.34a.464.464 0 0 0-.458.392l-1.35 8.564a.279.279 0 0 0 .274.323h1.715a.325.325 0 0 0 .32-.275l.383-2.427a.464.464 0 0 1 .458-.392h1.057c2.2 0 3.469-1.064 3.801-3.173.15-.923.006-1.648-.425-2.156-.475-.557-1.316-.856-2.435-.856zm.386 3.126c-.183 1.2-1.099 1.2-1.985 1.2h-.503l.354-2.236a.278.278 0 0 1 .275-.235h.23c.603 0 1.173 0 1.466.343.176.205.23.51.164.928zM54.15 6.247h-1.6a.278.278 0 0 0-.275.235l-.07.448-.113-.162c-.347-.503-1.118-.671-1.889-.671-1.768 0-3.278 1.34-3.572 3.22-.153.937.063 1.834.594 2.46.488.575 1.184.815 2.014.815 1.425 0 2.215-.917 2.215-.917l-.071.444a.279.279 0 0 0 .276.323h1.44a.464.464 0 0 0 .458-.392l.864-5.48a.28.28 0 0 0-.276-.323zm-2.23 3.116c-.153.913-.878 1.527-1.804 1.527-.463 0-.834-.149-1.073-.432-.236-.281-.326-.681-.25-1.127.145-.906.881-1.54 1.793-1.54.453 0 .822.151 1.065.436.245.288.343.69.269 1.136zM56.043 3.395l-1.371 8.72a.279.279 0 0 0 .275.323h1.378a.464.464 0 0 0 .458-.392l1.351-8.564a.279.279 0 0 0-.275-.323h-1.541a.279.279 0 0 0-.275.236z" fill="#253B80"/>
  <path d="M3.91 14.518.84 14.524a.42.42 0 0 1-.41-.486L2.57 1.09A.555.555 0 0 1 3.122.624L8.49.617c1.785 0 3.024.36 3.681 1.07.305.328.503.673.601 1.052.103.398.105.873.005 1.453l-.007.045v.376l.273.146c.232.118.418.255.561.41.236.255.39.58.452.964.064.395.043.864-.06 1.396-.121.624-.314 1.166-.575 1.609a3.207 3.207 0 0 1-.916.984c-.343.226-.751.397-1.215.508-.45.108-.962.163-1.527.163h-.36a1.156 1.156 0 0 0-1.108.93l-.027.137-.561 3.46-.027.13a.151.151 0 0 1-.044.097.114.114 0 0 1-.073.027z" fill="#253B80"/>
  <path d="M13.378 4.005c-.014.094-.03.19-.049.288-.62 3.137-2.756 4.221-5.484 4.221H6.456a.673.673 0 0 0-.667.566L4.86 14.93l-.262 1.65a.354.354 0 0 0 .35.41h2.464a.591.591 0 0 0 .584-.498l.025-.124.464-2.92.029-.16a.59.59 0 0 1 .584-.5h.367c2.387 0 4.255-.946 4.802-3.694.228-1.149.11-2.107-.487-2.78a2.32 2.32 0 0 0-.665-.51z" fill="#179BD7"/>
  <path d="M12.731 3.748a4.96 4.96 0 0 0-.604-.133 7.677 7.677 0 0 0-1.219-.087H6.71a.59.59 0 0 0-.583.498L5.23 9.69l-.025.16a.673.673 0 0 1 .666-.567h1.39c2.728 0 4.864-1.084 5.484-4.221.019-.099.034-.194.05-.288a3.358 3.358 0 0 0-.514-.215 4.95 4.95 0 0 0-.55-.81z" fill="#222D65"/>
  <path d="M6.127 4.026a.59.59 0 0 1 .584-.498h4.197c.45 0 .87.029 1.219.087.235.04.464.099.679.176.162.058.31.124.45.198.165-1.04 0-1.748-.564-2.39C12.07.892 10.949.62 9.515.62H4.147a.768.768 0 0 0-.76.648L1.146 15.452a.461.461 0 0 0 .456.534h3.319l.832-5.276.374-2.376z" fill="#253B80"/>
</svg>
